<svg width="990" height="90" viewBox="0 0 990 90" fill="none" xmlns="http://www.w3.org/2000/svg">
<rect width="289.241" height="89.463" fill="#F2F5CC"/>
<rect width="66.2757" height="66.2757" transform="translate(19.2842 12)" fill="#E74E5B"/>
<path d="M49.9272 71.1489H31.3989V66.1606H49.9272V71.1489ZM73.4448 71.1489H54.9165V66.1606H73.4448V71.1489ZM54.9165 66.1606H49.9272V47.6323H54.9165V66.1606ZM54.9165 42.644H49.9272V24.1147H54.9165V42.644ZM49.9272 24.1147H31.3989V19.1265H49.9272V24.1147ZM73.4448 24.1147H54.9165V19.1265H73.4448V24.1147Z" fill="#F2F5CC"/>
<rect x="99.813" y="66.1609" width="4.98849" height="4.98849" transform="rotate(90 99.813 66.1609)" fill="#443481"/>
<rect x="114.065" y="42.6436" width="18.5287" height="4.98849" fill="#443481"/>
<rect x="114.065" y="19.1265" width="18.5287" height="4.98849" fill="#443481"/>
<rect x="114.065" y="66.1609" width="18.5287" height="4.98849" fill="#443481"/>
<rect x="137.583" y="42.6436" width="9.97699" height="4.98849" fill="#443481"/>
<rect x="137.583" y="19.1265" width="18.5287" height="4.98849" fill="#443481"/>
<rect x="137.583" y="66.1609" width="18.5287" height="4.98849" fill="#443481"/>
<rect x="114.065" y="24.115" width="18.5287" height="4.98849" transform="rotate(90 114.065 24.115)" fill="#443481"/>
<rect x="114.065" y="47.6321" width="18.5287" height="4.98849" transform="rotate(90 114.065 47.6321)" fill="#443481"/>
<rect x="170.364" y="66.1609" width="14.2528" height="4.98849" fill="#443481"/>
<rect x="189.606" y="66.1609" width="14.2528" height="4.98849" fill="#443481"/>
<rect x="170.364" y="19.1265" width="23.5172" height="4.98849" transform="rotate(90 170.364 19.1265)" fill="#443481"/>
<rect x="208.847" y="19.1265" width="23.5172" height="4.98849" transform="rotate(90 208.847 19.1265)" fill="#443481"/>
<rect x="170.364" y="47.6321" width="18.5287" height="4.98849" transform="rotate(90 170.364 47.6321)" fill="#443481"/>
<rect x="208.847" y="47.6321" width="18.5287" height="4.98849" transform="rotate(90 208.847 47.6321)" fill="#443481"/>
<rect width="18.5287" height="4.98849" transform="matrix(1 0 0 -1 223.1 24.115)" fill="#443481"/>
<rect width="18.5287" height="4.98849" transform="matrix(1 0 0 -1 246.618 24.115)" fill="#443481"/>
<rect width="23.5172" height="4.98849" transform="matrix(-3.44393e-08 -1 -1 5.54798e-08 223.1 71.1492)" fill="#443481"/>
<rect width="23.5172" height="4.98849" transform="matrix(-3.44393e-08 -1 -1 5.54798e-08 270.135 71.1492)" fill="#443481"/>
<rect width="23.5172" height="4.98849" transform="matrix(-3.44393e-08 -1 -1 5.54798e-08 246.618 71.1492)" fill="#443481"/>
<rect width="18.5287" height="4.98849" transform="matrix(-4.37114e-08 -1 -1 4.37114e-08 223.1 42.6436)" fill="#443481"/>
<rect width="18.5287" height="4.98849" transform="matrix(-4.37114e-08 -1 -1 4.37114e-08 270.135 42.6436)" fill="#443481"/>
<rect width="18.5287" height="4.98849" transform="matrix(-4.37114e-08 -1 -1 4.37114e-08 246.618 42.6436)" fill="#443481"/>
<path d="M369.289 15.7314H375.305V70.3874H369.289V15.7314ZM356.105 38.5154V16.0514H362.057V69.4274H356.105V44.5314H348.873C348.489 60.7234 344.137 67.8274 336.201 67.8274C327.945 67.8274 323.465 60.0834 323.465 42.4194C323.465 24.7554 327.945 17.0114 336.201 17.0114C343.817 17.0114 348.169 23.6034 348.809 38.5154H356.105ZM336.201 62.0674C340.745 62.0674 342.857 55.8594 342.857 42.4194C342.857 28.9794 340.745 22.7714 336.201 22.7714C331.657 22.7714 329.481 28.9794 329.481 42.4194C329.481 55.8594 331.657 62.0674 336.201 62.0674ZM432.725 61.8114H456.853V67.7634H402.261V61.8114H426.261V50.1634C413.269 49.2674 404.885 42.8034 404.885 33.5234C404.885 23.4114 414.677 16.6914 429.525 16.6914C444.373 16.6914 454.165 23.4114 454.165 33.5234C454.165 42.8034 445.781 49.2674 432.725 50.1634V61.8114ZM411.605 33.5234C411.605 40.1154 418.773 44.5314 429.525 44.5314C440.341 44.5314 447.509 40.1154 447.509 33.5234C447.509 26.8674 440.341 22.4514 429.525 22.4514C418.773 22.4514 411.605 26.8674 411.605 33.5234ZM514.832 15.7314V56.3074H508.496V15.7314H514.832ZM483.024 35.2514C478.928 42.0994 472.528 47.0274 464.656 48.0514V42.0994C475.024 40.2434 481.424 28.9794 481.552 16.2434L487.888 16.6274C487.888 21.2994 487.056 25.8434 485.52 29.9394L503.056 42.8674L499.28 47.4754L483.024 35.2514ZM474.896 64.0514H516.304V69.6834H468.496V52.2754H474.896V64.0514ZM574.108 34.9954C569.564 43.5714 559.004 47.7314 545.052 47.7314V42.0354C560.348 41.9714 570.14 36.2754 570.14 25.2034V22.6434H545.052V17.0754H576.54V24.3714C576.54 26.0354 576.412 27.6354 576.092 29.1714H588.444V15.7314H594.78V53.1714H588.444V34.9954H574.108ZM596.956 64.7554L594.588 70.3234L570.972 59.8914C565.276 66.0994 556.38 69.6194 547.548 69.6834V63.7314C557.724 63.6034 567.9 57.9714 570.204 48.3074L576.54 49.4594C576.028 51.5714 575.26 53.5554 574.3 55.3474L596.956 64.7554ZM632.15 35.4434C618.966 35.4434 608.15 32.7554 608.15 25.4594C608.15 18.2274 618.966 15.5394 632.15 15.5394C645.334 15.5394 656.15 18.2274 656.15 25.4594C656.15 32.7554 645.334 35.4434 632.15 35.4434ZM632.15 30.5794C641.686 30.5794 649.622 29.1074 649.622 25.4594C649.622 21.8754 641.686 20.3394 632.15 20.3394C622.614 20.3394 614.678 21.8754 614.678 25.4594C614.678 29.1074 622.614 30.5794 632.15 30.5794ZM604.886 43.7634V38.8354H659.478V43.7634H604.886ZM608.662 69.7474V56.6914H649.494V52.8514H608.534V48.1154H655.702V61.1714H614.87V65.0114H656.662V69.7474H608.662ZM721.122 20.0194V24.8194H684.578V20.0194H699.362V14.1954H705.89V20.0194H721.122ZM733.986 31.2194H741.538V36.9794H733.986V58.4834H727.65V15.7314H733.986V31.2194ZM723.106 51.2514C719.65 52.7234 712.674 53.3634 704.93 53.3634H684.386V48.3714H699.49V44.0194C691.618 43.3794 686.946 40.3074 686.946 35.6994C686.946 30.5794 692.898 27.3154 702.754 27.3154C712.546 27.3154 718.562 30.5794 718.562 35.6994C718.562 40.3074 713.762 43.3794 705.826 44.0194V48.3714C713.058 48.3074 719.714 47.6674 723.106 46.2594V51.2514ZM692.962 35.6994C692.962 37.9394 696.226 39.4754 702.754 39.4754C709.218 39.4754 712.546 37.9394 712.546 35.6994C712.546 33.5234 709.218 31.9874 702.754 31.9874C696.226 31.9874 692.962 33.5234 692.962 35.6994ZM694.818 57.0114V64.6274H735.458V69.7474H688.418V57.0114H694.818ZM781.981 34.1634H791.133V26.0354H781.981L781.597 20.5954H791.133V15.7314H797.405V45.9394H791.133V39.6034H781.597L781.981 34.1634ZM780.125 30.1954C780.125 38.4514 773.661 44.0834 763.293 44.0834C752.989 44.0834 746.525 38.4514 746.525 30.1954C746.525 22.0034 752.989 16.3074 763.293 16.3074C773.661 16.3074 780.125 22.0034 780.125 30.1954ZM752.797 30.1954C752.797 35.6354 757.021 38.7714 763.293 38.7714C769.565 38.7714 773.789 35.6354 773.789 30.1954C773.789 24.7554 769.565 21.6194 763.293 21.6194C757.021 21.6194 752.797 24.7554 752.797 30.1954ZM774.557 47.7314C787.613 47.7314 797.917 50.8674 797.917 59.0594C797.917 67.2514 787.613 70.3874 774.557 70.3874C761.501 70.3874 751.261 67.2514 751.261 59.0594C751.261 50.8674 761.501 47.7314 774.557 47.7314ZM774.557 65.1394C783.773 65.1394 791.133 63.2834 791.133 59.0594C791.133 54.8994 783.773 52.9794 774.557 52.9794C765.341 52.9794 757.981 54.8994 757.981 59.0594C757.981 63.2834 765.341 65.1394 774.557 65.1394ZM844.439 20.2754V25.1394H807.319V20.2754H822.679V14.7714H829.079V20.2754H844.439ZM864.663 27.1874V33.0754H856.983V46.4514H850.647V15.7314H856.983V27.1874H864.663ZM825.879 47.1554C816.791 47.1554 809.815 43.5714 809.815 37.5554C809.815 31.6034 816.791 27.9554 825.879 27.9554C834.903 27.9554 841.879 31.6034 841.879 37.5554C841.879 43.5714 834.903 47.1554 825.879 47.1554ZM825.879 32.5634C819.735 32.5634 815.895 34.7394 815.895 37.5554C815.895 40.3714 819.735 42.5474 825.879 42.5474C831.959 42.5474 835.863 40.3714 835.863 37.5554C835.863 34.7394 831.959 32.5634 825.879 32.5634ZM850.839 54.3234V49.3954H856.983V69.6834H811.287V49.3954H817.431V54.3234H850.839ZM817.431 64.6914H850.839V59.1874H817.431V64.6914ZM913.746 70.4514V15.7314H920.082V70.3874L913.746 70.4514ZM872.21 67.1234V17.3954H878.674V61.2994H894.546C899.73 61.2994 905.362 60.2114 908.69 58.6114V64.4354C905.362 66.0994 899.794 67.1234 894.546 67.1234H872.21ZM987.788 37.8754V43.9554H980.108V70.3874H973.772V15.7314H980.108V37.8754H987.788ZM939.66 61.3634H954.892C960.076 61.3634 965.708 60.3394 969.036 58.7394V64.4994C965.708 66.1634 959.82 67.1234 954.572 67.1234H933.196V17.7154H964.748V23.4754H939.66V61.3634Z" fill="url(#paint0_linear_148_802)"/>
<defs>
<linearGradient id="paint0_linear_148_802" x1="319.241" y1="44.7314" x2="989.241" y2="44.7314" gradientUnits="userSpaceOnUse">
<stop offset="0.341346" stop-color="#FEFFEC"/>
<stop offset="0.413462" stop-color="#FCFFD9"/>
</linearGradient>
</defs>
</svg>
